<svg xmlns="http://www.w3.org/2000/svg" style="display: none;"><symbol id="alarm-clock" viewBox="0 0 58.153 58.153"><title>alarm-clock</title><path d="M40.076,29.153h-7.142c-0.364-1.399-1.459-2.494-2.858-2.858V16.153c0-0.553-0.448-1-1-1s-1,0.447-1,1v10.142 c-1.72,0.447-3,1.999-3,3.858c0,2.206,1.794,4,4,4c1.858,0,3.411-1.28,3.858-3h7.142c0.552,0,1-0.447,1-1 S40.629,29.153,40.076,29.153z M29.076,32.153c-1.103,0-2-0.897-2-2s0.897-2,2-2s2,0.897,2,2S30.179,32.153,29.076,32.153z"/><path d="M50.188,9.764l4.096,4.096c0.188,0.188,0.442,0.293,0.707,0.293s0.52-0.105,0.707-0.293c3.167-3.166,3.167-8.319,0-11.485 s-8.319-3.166-11.485,0c-0.188,0.188-0.293,0.441-0.293,0.707s0.105,0.52,0.293,0.707l4.561,4.561l-1.699,1.699 c-4.78-4.284-11.089-6.896-17.998-6.896s-13.218,2.612-17.998,6.896L9.379,8.35l4.561-4.561c0.188-0.188,0.293-0.441,0.293-0.707 s-0.105-0.52-0.293-0.707c-3.166-3.166-8.318-3.166-11.485,0s-3.167,8.319,0,11.485c0.188,0.188,0.442,0.293,0.707,0.293 s0.52-0.105,0.707-0.293l4.096-4.096l1.676,1.676c-4.679,4.857-7.565,11.453-7.565,18.713c0,9.898,5.357,18.564,13.321,23.265 l-3.028,3.028c-0.391,0.391-0.391,1.023,0,1.414c0.195,0.195,0.451,0.293,0.707,0.293s0.512-0.098,0.707-0.293l3.45-3.45 c3.578,1.754,7.597,2.743,11.843,2.743s8.265-0.989,11.843-2.743l3.45,3.45c0.195,0.195,0.451,0.293,0.707,0.293 s0.512-0.098,0.707-0.293c0.391-0.391,0.391-1.023,0-1.414l-3.028-3.028c7.964-4.701,13.321-13.367,13.321-23.265 c0-7.26-2.886-13.856-7.565-18.713L50.188,9.764z M54.283,3.789c2.146,2.146,2.362,5.502,0.649,7.893l-8.541-8.542 C48.781,1.427,52.136,1.642,54.283,3.789z M3.22,11.681C1.507,9.291,1.723,5.935,3.869,3.789s5.502-2.361,7.892-0.649L3.22,11.681z M29.076,55.153c-13.785,0-25-11.215-25-25s11.215-25,25-25s25,11.215,25,25S42.862,55.153,29.076,55.153z"/><path d="M29.076,10.032c0.552,0,1-0.447,1-1v-1c0-0.553-0.448-1-1-1s-1,0.447-1,1v1C28.076,9.584,28.524,10.032,29.076,10.032z"/><path d="M29.076,50.032c-0.552,0-1,0.447-1,1v1c0,0.553,0.448,1,1,1s1-0.447,1-1v-1C30.076,50.479,29.629,50.032,29.076,50.032z"/><path d="M50.076,31.032h1c0.552,0,1-0.447,1-1s-0.448-1-1-1h-1c-0.552,0-1,0.447-1,1S49.524,31.032,50.076,31.032z"/><path d="M8.076,29.032h-1c-0.552,0-1,0.447-1,1s0.448,1,1,1h1c0.552,0,1-0.447,1-1S8.629,29.032,8.076,29.032z"/><path d="M43.926,13.768l-0.707,0.707c-0.391,0.391-0.391,1.023,0,1.414c0.195,0.195,0.451,0.293,0.707,0.293 s0.512-0.098,0.707-0.293l0.707-0.707c0.391-0.391,0.391-1.023,0-1.414S44.316,13.377,43.926,13.768z"/><path d="M13.52,44.174l-0.707,0.707c-0.391,0.391-0.391,1.023,0,1.414c0.195,0.195,0.451,0.293,0.707,0.293 s0.512-0.098,0.707-0.293l0.707-0.707c0.391-0.391,0.391-1.023,0-1.414S13.911,43.784,13.52,44.174z"/><path d="M44.633,44.174c-0.391-0.391-1.023-0.391-1.414,0s-0.391,1.023,0,1.414l0.707,0.707c0.195,0.195,0.451,0.293,0.707,0.293 s0.512-0.098,0.707-0.293c0.391-0.391,0.391-1.023,0-1.414L44.633,44.174z"/><path d="M14.227,13.768c-0.391-0.391-1.023-0.391-1.414,0s-0.391,1.023,0,1.414l0.707,0.707c0.195,0.195,0.451,0.293,0.707,0.293 s0.512-0.098,0.707-0.293c0.391-0.391,0.391-1.023,0-1.414L14.227,13.768z"/></symbol><symbol id="man-user" viewBox="0 0 350 350"><title>man-user</title><path d="M175,171.173c38.914,0,70.463-38.318,70.463-85.586C245.463,38.318,235.105,0,175,0s-70.465,38.318-70.465,85.587 C104.535,132.855,136.084,171.173,175,171.173z"/><path d="M41.909,301.853C41.897,298.971,41.885,301.041,41.909,301.853L41.909,301.853z"/><path d="M308.085,304.104C308.123,303.315,308.098,298.63,308.085,304.104L308.085,304.104z"/><path d="M307.935,298.397c-1.305-82.342-12.059-105.805-94.352-120.657c0,0-11.584,14.761-38.584,14.761 s-38.586-14.761-38.586-14.761c-81.395,14.69-92.803,37.805-94.303,117.982c-0.123,6.547-0.18,6.891-0.202,6.131 c0.005,1.424,0.011,4.058,0.011,8.651c0,0,19.592,39.496,133.08,39.496c113.486,0,133.08-39.496,133.08-39.496 c0-2.951,0.002-5.003,0.005-6.399C308.062,304.575,308.018,303.664,307.935,298.397z"/></symbol><symbol id="heart" viewBox="0 0 496.158 496.158"><title>heart</title><path style="fill:#E04F5F;" d="M0,248.085C0,111.063,111.069,0.003,248.075,0.003c137.013,0,248.083,111.061,248.083,248.082 c0,137.002-111.07,248.07-248.083,248.07C111.069,496.155,0,385.087,0,248.085z"/><path style="fill:#FFFFFF;" d="M374.116,155.145c-34.799-34.8-91.223-34.8-126.022,0h-0.029c-34.801-34.8-91.224-34.8-126.023,0 c-34.801,34.8-29.783,86.842,0,126.022c31.541,41.491,89.129,109.944,126.023,109.944h0.029c36.895,0,94.481-68.453,126.022-109.944 C403.9,241.988,408.916,189.946,374.116,155.145z"/></symbol><symbol id="verified" viewBox="0 0 512 512"><title>verified</title><g> <g> <path d="M437.019,74.98C388.667,26.629,324.38,0,256,0C187.619,0,123.331,26.629,74.98,74.98C26.628,123.332,0,187.62,0,256 s26.628,132.667,74.98,181.019C123.332,485.371,187.619,512,256,512c68.38,0,132.667-26.629,181.019-74.981 C485.371,388.667,512,324.38,512,256S485.371,123.333,437.019,74.98z M256,482C131.383,482,30,380.617,30,256S131.383,30,256,30 s226,101.383,226,226S380.617,482,256,482z"/> </g> </g><g> <g> <path d="M378.305,173.859c-5.857-5.856-15.355-5.856-21.212,0.001L224.634,306.319l-69.727-69.727 c-5.857-5.857-15.355-5.857-21.213,0c-5.858,5.857-5.858,15.355,0,21.213l80.333,80.333c2.929,2.929,6.768,4.393,10.606,4.393 c3.838,0,7.678-1.465,10.606-4.393l143.066-143.066C384.163,189.215,384.163,179.717,378.305,173.859z"/> </g> </g></symbol><symbol id="like" viewBox="0 0 50 50"><title>like</title><path style="fill:#D75A4A;" d="M24.85,10.126c2.018-4.783,6.628-8.125,11.99-8.125c7.223,0,12.425,6.179,13.079,13.543 c0,0,0.353,1.828-0.424,5.119c-1.058,4.482-3.545,8.464-6.898,11.503L24.85,48L7.402,32.165c-3.353-3.038-5.84-7.021-6.898-11.503 c-0.777-3.291-0.424-5.119-0.424-5.119C0.734,8.179,5.936,2,13.159,2C18.522,2,22.832,5.343,24.85,10.126z"/></symbol></svg>